<svg xmlns="http://www.w3.org/2000/svg" width="500" height="500" viewBox="0 0 500 500">
<g>
<path d="M 262.14 315.00 C251.81,318.26 241.24,317.25 231.00,312.02 C228.52,310.75 222.23,307.16 217.00,304.03 C206.18,297.56 180.76,282.45 164.50,272.82 C60.43,211.23 55.75,208.40 52.87,205.32 C51.43,203.77 49.74,201.52 49.12,200.32 C47.28,196.73 47.82,189.88 50.29,185.51 C52.75,181.17 52.91,181.06 85.00,162.25 C95.72,155.96 106.97,149.34 110.00,147.54 C113.03,145.73 128.32,136.72 144.00,127.50 C159.68,118.29 177.68,107.70 184.00,103.98 C229.61,77.12 235.90,72.95 242.46,72.46 C243.65,72.37 244.86,72.41 246.31,72.45 C247.25,72.47 248.29,72.50 249.50,72.50 C250.62,72.50 251.60,72.48 252.49,72.46 C254.01,72.42 255.27,72.39 256.52,72.50 C263.13,73.03 269.45,77.16 313.56,103.04 C364.57,132.98 371.61,137.11 405.50,156.99 C444.90,180.09 444.99,180.14 448.07,183.22 C453.97,189.12 454.34,198.27 448.92,204.43 C445.35,208.51 445.93,208.14 399.50,235.79 L 362.50 257.82 L 353.30 275.67 C343.73,294.22 341.51,297.48 337.31,299.07 C333.79,300.41 327.96,298.63 324.83,295.27 C323.42,293.74 317.10,283.95 310.80,273.50 C304.49,263.05 297.40,251.35 295.05,247.50 C281.24,224.95 272.64,210.16 271.95,207.77 C270.82,203.92 272.59,198.47 275.78,195.93 C278.27,193.95 279.31,193.82 288.00,194.32 C293.23,194.63 301.55,195.57 306.50,196.41 C314.74,197.82 366.16,205.07 389.10,208.06 L 398.71 209.32 L 404.60 205.98 C419.09,197.78 423.21,194.78 421.83,193.46 C421.10,192.77 411.27,186.82 400.00,180.25 C388.73,173.69 372.75,164.35 364.50,159.50 C356.25,154.66 340.50,145.42 329.50,138.97 C318.50,132.53 301.62,122.62 292.00,116.96 C290.72,116.21 289.48,115.48 288.27,114.77 C257.25,96.52 251.84,93.34 247.40,94.36 C246.29,94.62 245.25,95.13 243.87,95.75 C241.47,96.82 228.93,103.91 216.00,111.51 C203.07,119.10 188.79,127.50 184.25,130.16 C175.61,135.23 164.63,141.68 150.75,149.86 C146.21,152.53 137.55,157.63 131.50,161.19 C125.45,164.76 112.85,172.17 103.50,177.66 C94.15,183.16 84.29,189.04 81.60,190.72 L 76.70 193.79 L 81.10 196.57 C83.52,198.09 91.35,202.79 98.50,207.00 C105.65,211.22 125.90,223.22 143.50,233.69 C150.55,237.88 157.11,241.78 163.22,245.41 C241.43,291.91 245.20,294.16 248.91,294.06 C249.38,294.05 249.86,294.00 250.50,294.00 C255.03,294.00 257.00,293.11 271.47,284.50 C284.76,276.60 288.15,275.00 291.59,275.00 C299.92,275.00 305.07,283.19 301.38,290.57 C299.81,293.71 296.94,295.87 284.00,303.66 C275.48,308.79 265.64,313.89 262.14,315.00 ZM 262.43 434.94 C254.87,437.77 245.24,437.67 237.99,434.69 C234.97,433.44 227.32,429.29 220.99,425.47 C214.67,421.64 208.60,418.03 207.50,417.43 C206.40,416.84 201.00,413.64 195.50,410.32 C190.00,407.01 178.30,400.02 169.50,394.80 C160.70,389.58 140.00,377.29 123.50,367.49 C107.00,357.68 86.07,345.26 77.00,339.88 C48.17,322.79 47.24,322.13 44.48,316.58 C40.55,308.70 41.52,295.50 46.43,290.08 C47.32,289.09 53.03,285.26 59.12,281.56 L 70.19 274.84 L 79.34 280.30 C84.38,283.30 94.80,289.46 102.50,293.98 C110.20,298.51 118.07,303.22 120.00,304.45 C121.93,305.68 127.78,309.20 133.00,312.26 C138.23,315.33 149.48,321.99 158.00,327.06 C166.52,332.13 174.85,337.05 176.50,338.00 C179.14,339.52 189.83,345.88 218.69,363.10 C247.64,380.38 252.96,380.71 276.27,366.67 C283.00,362.62 295.70,355.03 304.50,349.81 C336.26,330.97 380.95,304.39 402.83,291.31 C415.11,283.97 426.48,277.29 428.09,276.45 C430.97,274.97 431.22,275.06 442.05,281.62 C456.78,290.54 457.50,291.64 457.50,305.07 C457.50,314.61 457.26,315.99 455.09,319.16 C452.15,323.46 452.84,323.00 419.00,343.02 C368.84,372.70 310.24,407.54 279.22,426.12 C273.01,429.84 265.46,433.81 262.43,434.94 ZM 241.50 309.60 C247.15,311.39 254.66,311.23 260.50,309.19 C267.20,306.84 294.68,290.47 295.97,288.05 C296.65,286.78 296.67,285.27 296.02,283.57 C294.36,279.18 290.49,280.18 276.39,288.62 C260.23,298.30 256.55,299.95 250.99,299.98 C244.01,300.01 241.26,298.85 224.31,288.76 C215.61,283.58 200.62,274.69 191.00,269.02 C181.38,263.34 169.23,256.13 164.00,253.00 C158.77,249.87 145.50,241.99 134.50,235.50 C83.32,205.28 70.87,197.63 69.90,195.82 C68.22,192.68 70.84,189.95 81.64,183.57 C111.59,165.88 130.86,154.52 142.00,148.01 C155.13,140.33 178.61,126.49 198.00,115.01 C244.50,87.47 246.32,86.61 254.26,88.81 C256.23,89.35 269.91,96.86 284.67,105.50 C299.43,114.14 316.90,124.37 323.50,128.24 C330.10,132.10 337.52,136.49 340.00,137.99 C342.48,139.49 349.00,143.33 354.50,146.51 C360.00,149.70 367.65,154.19 371.50,156.51 C375.35,158.82 389.83,167.32 403.67,175.40 C417.51,183.48 429.40,190.78 430.09,191.61 C432.91,195.01 430.05,197.95 415.50,206.64 C403.44,213.83 400.88,214.99 397.00,214.97 C392.18,214.95 386.69,214.21 326.64,205.58 C305.27,202.51 286.04,200.00 283.91,200.00 C280.88,200.00 279.69,200.55 278.39,202.53 C276.75,205.03 276.88,205.30 292.26,230.78 C293.33,232.56 294.38,234.29 295.39,235.98 C326.40,287.36 330.33,293.87 333.66,293.58 C334.26,293.53 334.83,293.26 335.53,292.99 C336.86,292.49 340.87,285.86 347.02,274.01 C353.55,261.43 357.56,254.87 359.99,252.79 C361.92,251.13 375.65,242.60 390.50,233.82 C439.49,204.86 445.61,201.45 446.32,197.14 C446.42,196.53 446.41,195.90 446.40,195.17 C446.40,194.92 446.39,194.66 446.39,194.38 C446.40,189.40 443.70,186.52 433.27,180.44 C427.90,177.31 416.08,170.37 407.00,165.03 C397.92,159.69 377.23,147.55 361.00,138.05 C344.77,128.55 325.20,117.06 317.50,112.53 C274.55,87.27 262.17,80.19 259.10,79.15 C254.37,77.55 244.06,77.71 239.08,79.47 C236.78,80.28 228.96,84.49 221.70,88.83 C214.44,93.16 190.05,107.52 167.50,120.74 C144.95,133.96 113.00,152.76 96.50,162.53 C80.00,172.29 64.59,181.38 62.26,182.72 C56.41,186.08 54.00,189.44 54.00,194.21 C54.00,199.46 56.48,201.79 71.50,210.64 C93.69,223.71 128.35,244.22 149.00,256.49 C160.27,263.19 176.25,272.65 184.50,277.52 C192.75,282.38 206.02,290.27 214.00,295.05 C230.76,305.09 235.96,307.84 241.50,309.60 ZM 341.89 260.89 C334.82,274.39 332.56,276.42 329.68,271.81 C328.89,270.54 323.63,261.85 317.99,252.50 C312.36,243.15 305.10,231.18 301.87,225.90 C295.68,215.76 294.99,213.60 297.63,212.59 C299.03,212.05 374.28,222.31 377.75,223.51 C379.57,224.13 379.28,227.45 377.25,229.18 C376.29,230.00 370.03,233.91 363.35,237.86 C356.67,241.82 350.59,245.78 349.85,246.67 C349.11,247.55 345.53,253.95 341.89,260.89 ZM 319.22 242.38 C320.36,244.29 321.40,246.04 322.36,247.65 C328.66,258.23 331.19,262.47 333.16,262.23 C334.79,262.03 336.03,258.78 338.69,253.50 C344.01,242.94 346.18,240.62 355.97,235.02 C360.91,232.19 365.21,229.46 365.52,228.97 C365.83,228.47 365.05,227.82 363.79,227.53 C358.23,226.23 310.56,219.92 308.44,220.19 C306.25,220.48 306.93,221.89 319.22,242.38 Z" fill="rgb(38,42,47)"/>
<path d="M 241.50 369.26 C245.37,370.24 255.74,369.99 259.10,368.83 C260.97,368.19 264.08,366.66 266.00,365.45 C268.95,363.58 316.75,335.17 326.71,329.37 C330.74,327.01 364.97,306.62 371.00,302.98 C373.48,301.48 387.65,293.08 402.50,284.31 C417.35,275.54 432.20,266.73 435.50,264.74 C438.80,262.75 443.65,259.89 446.27,258.39 C451.23,255.55 453.15,252.05 451.33,249.16 C450.80,248.33 443.42,243.44 434.93,238.31 C426.45,233.19 418.60,228.34 417.50,227.55 C416.24,226.65 414.83,226.87 406.31,231.73 C413.59,227.40 419.51,223.87 424.36,220.96 C422.72,222.00 421.68,222.71 421.57,222.88 C421.16,223.55 426.58,226.99 443.88,237.08 C454.36,243.19 458.00,246.86 458.00,251.29 C458.00,256.46 454.54,259.95 441.78,267.63 C435.64,271.33 432.41,272.88 432.38,274.49 C432.36,275.41 433.39,276.35 435.52,277.73 C430.91,275.12 430.22,275.35 428.09,276.45 C426.48,277.29 415.11,283.97 402.83,291.31 C380.95,304.39 336.26,330.97 304.50,349.81 C295.70,355.03 283.00,362.62 276.27,366.67 C252.96,380.71 247.64,380.38 218.69,363.10 C189.83,345.88 179.14,339.52 176.50,338.00 C174.85,337.05 166.52,332.13 158.00,327.06 C149.48,321.99 138.23,315.33 133.00,312.26 C127.78,309.20 121.93,305.68 120.00,304.45 C118.07,303.22 110.20,298.51 102.50,293.98 C94.80,289.46 84.38,283.30 79.34,280.30 L 70.19 274.84 L 59.12 281.56 C58.83,281.74 58.53,281.92 58.24,282.10 C65.71,277.27 68.39,275.23 68.37,274.50 C68.35,273.95 63.68,270.76 58.00,267.41 C44.85,259.65 41.58,256.18 42.30,250.78 C42.59,248.62 43.61,245.99 44.56,244.94 C46.31,243.00 53.97,238.12 68.74,229.52 C73.28,226.88 77.44,224.17 78.01,223.49 C78.77,222.57 76.08,220.49 67.26,215.20 C63.03,212.66 59.76,210.57 57.21,208.72 C61.66,211.69 71.06,217.40 92.99,230.45 C87.10,227.01 85.19,226.00 84.88,226.00 C84.48,226.00 83.55,226.59 82.82,227.31 C82.09,228.03 74.75,232.59 66.50,237.44 C48.79,247.86 48.00,248.48 48.00,252.05 L 48.00 252.08 C48.00,252.42 48.00,252.72 48.05,253.02 C48.41,255.36 51.64,257.26 80.50,274.28 C90.40,280.12 100.97,286.41 104.00,288.26 C107.03,290.12 112.88,293.59 117.00,295.98 C121.12,298.38 127.52,302.17 131.20,304.42 C137.54,308.28 186.47,337.38 193.30,341.36 C195.06,342.38 206.18,348.97 218.00,355.99 C229.83,363.01 240.41,368.99 241.50,369.26 ZM 92.50 203.44 C98.55,207.04 103.68,209.99 103.91,209.99 C104.13,210.00 105.70,208.97 107.41,207.71 C109.11,206.45 113.88,203.45 118.00,201.04 C122.12,198.64 127.53,195.48 130.00,194.01 C132.48,192.55 137.20,189.76 140.50,187.81 C143.80,185.86 159.77,176.49 176.00,166.98 C192.23,157.47 211.12,146.36 218.00,142.29 C238.77,130.00 242.24,128.54 250.43,128.62 C250.86,128.62 251.26,128.62 251.64,128.63 C252.69,128.63 253.59,128.63 254.49,128.70 C260.12,129.17 265.51,132.53 307.00,157.02 C330.82,171.08 341.68,177.47 368.00,192.91 C380.38,200.17 391.00,206.76 391.61,207.55 C391.91,207.95 392.26,208.27 392.65,208.52 L 389.10 208.06 C385.86,207.64 382.04,207.13 377.86,206.57 C378.55,206.51 379.00,206.30 379.00,205.98 C379.00,205.44 378.56,205.00 378.02,205.00 C377.10,205.00 371.40,201.78 363.00,196.53 C361.08,195.32 355.23,191.85 350.00,188.81 C334.26,179.65 324.12,173.72 311.50,166.29 C275.44,145.07 260.21,136.27 257.70,135.20 C254.15,133.68 247.29,133.66 242.90,135.17 C241.03,135.81 236.35,138.22 232.50,140.52 C228.65,142.83 221.00,147.32 215.50,150.50 C210.00,153.69 202.91,157.80 199.75,159.65 C196.59,161.49 191.41,164.50 188.25,166.34 C154.62,185.85 113.13,210.57 111.66,211.98 C110.33,213.24 110.07,213.67 112.35,215.20 C106.31,211.62 101.36,208.69 98.50,207.00 C92.04,203.20 85.03,199.00 81.95,197.09 C84.57,198.70 88.53,201.08 92.50,203.44 ZM 396.48 209.03 C400.36,208.35 406.55,205.11 416.83,198.68 C417.40,198.32 417.93,197.99 418.40,197.68 C415.65,199.59 411.20,202.24 404.60,205.98 L 398.71 209.32 ZM 272.87 79.30 C265.31,75.09 261.60,73.42 258.57,72.79 C261.33,73.11 262.93,73.78 265.56,75.17 C266.62,75.73 268.90,77.02 272.87,79.30 ZM 362.67 257.72 L 353.50 275.37 C351.18,279.82 349.29,283.41 347.69,286.31 C349.24,283.48 351.07,279.99 353.30,275.67 L 362.50 257.82 ZM 44.09 315.74 C42.36,312.14 41.93,310.39 42.08,306.18 C42.21,309.59 42.87,312.94 44.09,315.74 ZM 449.18 204.13 C452.29,200.41 453.35,195.67 452.43,191.22 C453.28,194.35 453.01,197.05 451.65,200.30 C451.11,201.58 450.32,202.83 449.18,204.13 ZM 171.59 250.39 C190.09,261.34 209.80,273.03 219.15,278.58 L 219.94 279.05 C208.99,272.62 193.55,263.45 171.59,250.39 ZM 145.92 261.82 C151.73,265.26 157.92,268.93 164.50,272.82 C179.27,281.56 201.60,294.83 213.68,302.05 C209.40,299.53 204.41,296.55 198.50,293.02 C190.80,288.43 178.65,281.21 171.50,276.99 C165.73,273.58 155.24,267.37 145.92,261.82 ZM 266.09 313.36 C270.74,311.20 277.72,307.44 284.00,303.66 C292.09,298.79 296.24,296.12 298.60,294.04 C296.24,296.12 292.09,298.79 284.00,303.67 C276.54,308.16 270.86,311.29 266.09,313.36 ZM 431.64 172.35 C425.74,168.86 417.42,163.98 405.50,156.99 C397.11,152.07 390.37,148.11 384.20,144.49 C391.27,148.63 399.44,153.41 407.00,157.84 C417.73,164.11 425.69,168.78 431.64,172.35 ZM 456.80 295.13 C455.62,290.46 452.47,288.00 444.17,282.91 C452.44,287.88 455.61,290.25 456.80,295.13 ZM 251.84 316.83 C254.30,316.73 256.76,316.38 259.21,315.80 C256.65,316.47 254.26,316.79 251.84,316.83 ZM 246.60 293.69 C247.11,293.81 247.58,293.88 248.06,293.93 C248.80,294.00 249.55,294.00 250.44,294.00 C249.83,294.00 249.37,294.05 248.91,294.06 C248.27,294.08 247.62,294.03 246.60,293.69 ZM 433.49 215.46 C436.44,213.67 438.73,212.26 440.53,211.11 C438.53,212.43 436.20,213.87 433.49,215.46 ZM 51.80 204.09 C50.64,202.83 49.79,201.61 49.12,200.32 C49.59,201.23 50.67,202.74 51.80,204.09 ZM 48.45 321.95 C51.96,325.00 59.10,329.27 77.00,339.88 C59.11,329.28 51.97,325.02 48.45,321.95 ZM 253.84 293.68 C256.94,292.97 260.91,290.78 271.47,284.50 C260.84,290.83 256.95,292.98 253.84,293.68 ZM 306.50 196.41 C301.90,195.63 294.38,194.76 289.15,194.40 C294.38,194.76 301.90,195.62 306.50,196.41 C307.43,196.56 308.77,196.78 310.46,197.04 C308.72,196.77 307.37,196.56 306.50,196.41 ZM 51.30 286.52 C50.67,286.94 50.09,287.33 49.56,287.70 C50.10,287.30 50.68,286.91 51.30,286.52 ZM 77.99 194.60 L 76.70 193.79 L 76.72 193.77 ZM 340.28 297.31 C339.33,298.15 338.42,298.65 337.38,299.05 C338.42,298.64 339.34,298.13 340.28,297.31 ZM 348.42 123.50 C343.24,120.47 337.44,117.06 330.69,113.10 C336.16,116.31 342.06,119.77 348.42,123.50 Z" fill="rgb(200,202,205)"/>
<path d="M 262.43 434.94 C265.46,433.81 273.01,429.84 279.22,426.12 C310.24,407.54 368.84,372.70 419.00,343.02 C452.84,323.00 452.15,323.46 455.09,319.16 C457.26,315.99 457.50,314.61 457.50,305.07 C457.50,291.83 456.59,290.34 443.75,282.66 C428.83,273.73 429.04,275.31 441.78,267.63 C454.54,259.95 458.00,256.46 458.00,251.29 C458.00,246.86 454.36,243.19 443.88,237.08 C426.58,226.99 421.16,223.55 421.57,222.88 C421.81,222.50 426.75,219.41 432.55,216.02 C444.87,208.82 449.78,204.78 451.65,200.30 C453.53,195.79 453.34,192.33 450.92,187.33 C448.45,182.23 446.68,181.04 407.00,157.84 C391.88,148.99 374.33,138.72 368.00,135.00 C293.84,91.45 269.83,77.42 265.56,75.17 C260.96,72.75 259.49,72.50 249.50,72.50 C236.13,72.50 243.29,69.06 184.00,103.98 C177.68,107.70 159.68,118.29 144.00,127.50 C128.32,136.72 113.03,145.73 110.00,147.54 C106.97,149.34 95.72,155.96 85.00,162.25 C52.91,181.06 52.75,181.17 50.29,185.51 C47.82,189.88 47.28,196.73 49.12,200.32 C51.37,204.70 55.74,208.28 67.26,215.20 C76.08,220.49 78.77,222.57 78.01,223.49 C77.44,224.17 73.28,226.88 68.74,229.52 C53.97,238.12 46.31,243.00 44.56,244.94 C43.61,245.99 42.59,248.62 42.30,250.78 C41.58,256.18 44.85,259.65 58.00,267.41 C63.68,270.76 68.35,273.95 68.37,274.50 C68.40,275.42 64.11,278.44 51.33,286.50 C44.91,290.55 42.79,294.52 42.21,303.59 C41.80,310.04 42.06,311.60 44.33,316.24 C47.23,322.16 47.78,322.56 77.00,339.88 C86.07,345.26 107.00,357.68 123.50,367.49 C140.00,377.29 160.70,389.58 169.50,394.80 C178.30,400.02 190.00,407.01 195.50,410.32 C201.00,413.64 206.40,416.84 207.50,417.43 C208.60,418.03 214.67,421.64 220.99,425.47 C227.32,429.29 234.97,433.44 237.99,434.69 C245.24,437.67 254.87,437.77 262.43,434.94 ZM 241.50 369.26 C240.41,368.99 229.83,363.01 218.00,355.99 C206.18,348.97 195.06,342.38 193.30,341.36 C186.47,337.38 137.54,308.28 131.20,304.42 C127.52,302.17 121.12,298.38 117.00,295.98 C112.88,293.59 107.03,290.12 104.00,288.26 C100.97,286.41 90.40,280.12 80.50,274.28 C47.91,255.06 48.00,255.12 48.00,252.05 C48.00,248.48 48.79,247.86 66.50,237.44 C74.75,232.59 82.09,228.03 82.82,227.31 C83.55,226.59 84.48,226.00 84.88,226.00 C85.59,226.00 94.48,231.21 139.50,258.01 C149.95,264.23 164.35,272.77 171.50,276.99 C178.65,281.21 190.80,288.43 198.50,293.02 C235.49,315.10 236.87,315.76 248.15,316.70 C258.01,317.52 265.54,314.79 284.00,303.67 C296.94,295.87 299.81,293.71 301.38,290.57 C305.07,283.19 299.92,275.00 291.59,275.00 C288.15,275.00 284.76,276.60 271.47,284.50 C257.25,292.96 254.98,294.00 250.70,294.00 C245.03,294.00 245.51,294.24 219.15,278.58 C207.79,271.84 181.18,256.06 160.00,243.53 C138.82,230.99 118.87,219.16 115.66,217.24 C110.02,213.87 109.88,213.68 111.66,211.98 C113.13,210.57 154.62,185.85 188.25,166.34 C191.41,164.50 196.59,161.49 199.75,159.65 C202.91,157.80 210.00,153.69 215.50,150.50 C221.00,147.32 228.65,142.83 232.50,140.52 C236.35,138.22 241.03,135.81 242.90,135.17 C247.29,133.66 254.15,133.68 257.70,135.20 C260.21,136.27 275.44,145.07 311.50,166.29 C324.12,173.72 334.26,179.65 350.00,188.81 C355.23,191.85 361.08,195.32 363.00,196.53 C371.40,201.78 377.10,205.00 378.02,205.00 C378.56,205.00 379.00,205.44 379.00,205.98 C379.00,206.51 377.76,206.73 376.25,206.47 C374.74,206.21 360.45,204.18 344.50,201.96 C328.55,199.75 311.45,197.25 306.50,196.41 C301.55,195.57 293.23,194.63 288.00,194.32 C279.31,193.82 278.27,193.95 275.78,195.93 C272.59,198.47 270.82,203.92 271.95,207.77 C272.64,210.16 281.24,224.95 295.05,247.50 C297.40,251.35 304.49,263.05 310.80,273.50 C317.10,283.95 323.42,293.74 324.83,295.27 C328.00,298.67 333.78,300.41 337.38,299.05 C341.47,297.49 343.71,294.20 353.50,275.37 L 362.70 257.67 L 389.10 241.89 C413.48,227.32 415.65,226.22 417.50,227.55 C418.60,228.34 426.45,233.19 434.93,238.31 C443.42,243.44 450.80,248.33 451.33,249.16 C453.15,252.05 451.23,255.55 446.27,258.39 C443.65,259.89 438.80,262.75 435.50,264.74 C432.20,266.73 417.35,275.54 402.50,284.31 C387.65,293.08 373.48,301.48 371.00,302.98 C364.97,306.62 330.74,327.01 326.71,329.37 C316.75,335.17 268.95,363.58 266.00,365.45 C264.08,366.66 260.97,368.19 259.10,368.83 C255.74,369.99 245.37,370.24 241.50,369.26 ZM 241.50 309.60 C235.96,307.84 230.76,305.09 214.00,295.05 C206.02,290.27 192.75,282.38 184.50,277.52 C176.25,272.65 160.27,263.19 149.00,256.49 C128.35,244.22 93.69,223.71 71.50,210.64 C56.48,201.79 54.00,199.46 54.00,194.21 C54.00,189.44 56.41,186.08 62.26,182.72 C64.59,181.38 80.00,172.29 96.50,162.53 C113.00,152.76 144.95,133.96 167.50,120.74 C190.05,107.52 214.44,93.16 221.70,88.83 C228.96,84.49 236.78,80.28 239.08,79.47 C244.06,77.71 254.37,77.55 259.10,79.15 C262.17,80.19 274.55,87.27 317.50,112.53 C325.20,117.06 344.77,128.55 361.00,138.05 C377.23,147.55 397.92,159.69 407.00,165.03 C416.08,170.37 427.90,177.31 433.27,180.44 C443.70,186.52 446.40,189.40 446.39,194.38 C446.38,201.08 448.91,199.30 390.50,233.82 C375.65,242.60 361.92,251.13 359.99,252.79 C357.56,254.87 353.55,261.43 347.02,274.01 C340.87,285.86 336.86,292.49 335.53,292.99 C330.74,294.81 331.98,296.59 292.26,230.78 C276.88,205.30 276.75,205.03 278.39,202.53 C279.69,200.55 280.88,200.00 283.91,200.00 C286.04,200.00 305.27,202.51 326.64,205.58 C386.69,214.21 392.18,214.95 397.00,214.97 C400.88,214.99 403.44,213.83 415.50,206.64 C430.05,197.95 432.91,195.01 430.09,191.61 C429.40,190.78 417.51,183.48 403.67,175.40 C389.83,167.32 375.35,158.82 371.50,156.51 C367.65,154.19 360.00,149.70 354.50,146.51 C349.00,143.33 342.48,139.49 340.00,137.99 C337.52,136.49 330.10,132.10 323.50,128.24 C316.90,124.37 299.43,114.14 284.67,105.50 C269.91,96.86 256.23,89.35 254.26,88.81 C246.32,86.61 244.50,87.47 198.00,115.01 C178.61,126.49 155.13,140.33 142.00,148.01 C130.86,154.52 111.59,165.88 81.64,183.57 C70.84,189.95 68.22,192.68 69.90,195.82 C70.87,197.63 83.32,205.28 134.50,235.50 C145.50,241.99 158.77,249.87 164.00,253.00 C169.23,256.13 181.38,263.34 191.00,269.02 C200.62,274.69 215.61,283.58 224.31,288.76 C241.26,298.85 244.01,300.01 250.99,299.98 C256.55,299.95 260.23,298.30 276.39,288.62 C290.49,280.18 294.36,279.18 296.02,283.57 C296.67,285.27 296.65,286.78 295.97,288.05 C294.68,290.47 267.20,306.84 260.50,309.19 C254.66,311.23 247.15,311.39 241.50,309.60 ZM 341.89 260.89 C345.53,253.95 349.11,247.55 349.85,246.67 C350.59,245.78 356.67,241.82 363.35,237.86 C370.03,233.91 376.29,230.00 377.25,229.18 C379.28,227.45 379.57,224.13 377.75,223.51 C374.28,222.31 299.03,212.05 297.63,212.59 C294.99,213.60 295.68,215.76 301.87,225.90 C305.10,231.18 312.36,243.15 317.99,252.50 C323.63,261.85 328.89,270.54 329.68,271.81 C332.56,276.42 334.82,274.39 341.89,260.89 ZM 92.50 203.44 C86.45,199.84 80.42,196.19 79.11,195.33 L 76.72 193.77 L 81.61 190.72 C84.30,189.03 94.15,183.16 103.50,177.66 C112.85,172.17 125.45,164.76 131.50,161.19 C137.55,157.63 146.21,152.53 150.75,149.86 C164.63,141.68 175.61,135.23 184.25,130.16 C188.79,127.50 203.07,119.10 216.00,111.51 C228.93,103.91 241.47,96.82 243.87,95.75 C250.95,92.59 249.41,91.91 292.00,116.96 C301.62,122.62 318.50,132.53 329.50,138.97 C340.50,145.42 356.25,154.66 364.50,159.50 C372.75,164.35 388.73,173.69 400.00,180.25 C411.27,186.82 421.10,192.77 421.83,193.46 C422.91,194.50 422.01,195.44 416.83,198.68 C400.32,209.01 394.34,211.11 391.61,207.55 C391.00,206.76 380.38,200.17 368.00,192.91 C341.68,177.47 330.82,171.08 307.00,157.02 C256.53,127.23 259.47,128.71 250.43,128.62 C242.24,128.54 238.77,130.00 218.00,142.29 C211.12,146.36 192.23,157.47 176.00,166.98 C159.77,176.49 143.80,185.86 140.50,187.81 C137.20,189.76 132.48,192.55 130.00,194.01 C127.53,195.48 122.12,198.64 118.00,201.04 C113.88,203.45 109.11,206.45 107.41,207.71 C105.70,208.97 104.13,210.00 103.91,209.99 C103.68,209.99 98.55,207.04 92.50,203.44 ZM 319.22 242.38 C306.93,221.89 306.25,220.48 308.44,220.19 C310.56,219.92 358.23,226.23 363.79,227.53 C365.05,227.82 365.83,228.47 365.52,228.97 C365.21,229.46 360.91,232.19 355.97,235.02 C346.18,240.62 344.01,242.94 338.69,253.50 C332.31,266.16 334.07,267.16 319.22,242.38 Z" fill="rgb(254,254,254)"/>
</g>
</svg>